<?xml version="1.0" standalone="no"?>
<!DOCTYPE svg PUBLIC "-//W3C//DTD SVG 20010904//EN"
 "http://www.w3.org/TR/2001/REC-SVG-20010904/DTD/svg10.dtd">
<svg version="1.0" xmlns="http://www.w3.org/2000/svg"
 width="1280.000000pt" height="1280.000000pt" viewBox="0 0 1280.000000 1280.000000"
 preserveAspectRatio="xMidYMid meet">
<metadata>
Created by potrace 1.15, written by Peter Selinger 2001-2017
</metadata>
<g transform="translate(0.000000,1280.000000) scale(0.100000,-0.100000)"
fill="#000000" stroke="none">
<path d="M5655 12783 c-127 -27 -276 -112 -345 -195 -105 -128 -105 -244 0
-350 65 -65 142 -95 208 -83 83 15 155 82 188 172 7 22 13 80 14 139 0 109 6
124 53 124 43 0 134 -96 180 -190 54 -111 70 -186 65 -305 -4 -91 -8 -108 -42
-179 -100 -207 -365 -359 -673 -385 -101 -9 -279 1 -294 16 -4 4 10 31 32 58
115 143 118 241 11 335 -109 96 -253 92 -412 -11 -34 -22 -64 -39 -66 -37 -1
2 1 21 6 43 19 79 12 133 -25 211 -98 204 -267 291 -551 282 -99 -3 -116 -6
-134 -24 l-21 -21 70 -67 c38 -38 77 -83 85 -101 49 -102 -26 -200 -172 -226
-84 -15 -183 0 -450 66 -270 67 -386 90 -531 106 -148 16 -373 6 -506 -21
-222 -46 -498 -159 -675 -275 -98 -64 -230 -195 -264 -263 -15 -29 -31 -76
-36 -104 -6 -28 -12 -53 -13 -55 -2 -1 -27 -7 -55 -13 -178 -33 -362 -235
-503 -552 -104 -235 -157 -446 -166 -669 -9 -236 13 -392 116 -808 61 -244 77
-356 62 -437 -26 -137 -118 -211 -216 -174 -15 6 -61 44 -103 85 l-76 75 -21
-20 c-17 -18 -20 -36 -23 -134 -9 -284 78 -453 282 -551 78 -37 132 -44 211
-25 22 5 41 7 43 5 2 -2 -10 -24 -28 -50 -110 -160 -118 -317 -20 -427 94
-107 192 -104 335 11 27 22 53 37 58 32 5 -5 12 -51 17 -102 35 -368 -133
-743 -386 -865 -71 -34 -88 -38 -179 -42 -119 -5 -194 11 -305 65 -94 46 -190
137 -190 180 0 47 15 53 124 53 110 1 154 12 217 56 80 55 112 145 84 241 -13
47 -27 69 -73 113 -80 78 -152 97 -242 65 -134 -47 -265 -226 -304 -417 -45
-216 8 -380 174 -544 92 -91 163 -142 237 -170 24 -9 43 -19 43 -23 0 -3 -20
-14 -45 -24 -126 -52 -296 -206 -358 -325 -86 -164 -87 -355 -3 -537 96 -205
252 -314 393 -274 71 19 156 107 178 183 28 95 -4 185 -84 240 -63 44 -107 55
-216 56 -110 0 -125 6 -125 51 0 37 77 118 155 164 88 52 204 86 295 87 103 0
143 -8 229 -49 247 -117 415 -497 381 -862 -5 -51 -12 -97 -17 -102 -5 -5 -31
10 -58 32 -143 115 -241 118 -335 11 -98 -110 -90 -267 20 -427 18 -26 30 -48
28 -51 -2 -2 -20 1 -39 6 -70 20 -137 12 -215 -25 -204 -98 -291 -267 -282
-551 3 -98 6 -116 23 -134 l21 -20 76 75 c42 41 88 79 103 85 98 37 190 -37
216 -174 15 -81 -1 -193 -62 -437 -103 -416 -125 -572 -116 -808 7 -163 29
-287 83 -453 137 -422 369 -727 586 -768 28 -6 53 -12 55 -13 1 -2 7 -27 13
-55 5 -28 21 -75 36 -104 34 -68 166 -199 264 -263 177 -116 454 -229 675
-275 58 -12 161 -23 246 -27 233 -10 394 14 806 116 252 62 352 77 435 62 140
-24 216 -117 178 -216 -6 -15 -44 -61 -85 -103 l-75 -76 20 -21 c18 -17 36
-20 134 -23 284 -9 453 78 551 282 37 78 44 132 25 211 -5 22 -7 41 -5 43 2 2
24 -10 50 -28 160 -110 317 -118 427 -20 107 94 104 192 -11 335 -22 27 -37
53 -32 58 16 16 184 26 288 17 316 -28 578 -177 679 -386 34 -71 38 -88 42
-179 5 -119 -11 -194 -65 -305 -46 -94 -137 -190 -180 -190 -46 0 -53 15 -53
119 0 115 -10 154 -54 218 -59 86 -144 117 -243 88 -47 -13 -69 -28 -113 -73
-86 -88 -100 -164 -51 -267 61 -130 223 -242 404 -279 215 -45 378 8 543 174
90 91 139 159 171 236 10 24 20 44 23 44 3 0 13 -20 23 -45 32 -77 90 -157
177 -242 161 -159 326 -211 537 -167 181 37 343 149 404 279 49 103 35 179
-51 267 -44 45 -66 60 -113 73 -100 29 -187 -3 -244 -88 -43 -65 -53 -104 -53
-218 0 -104 -7 -119 -53 -119 -43 0 -134 96 -180 190 -55 112 -70 186 -65 307
4 94 8 109 43 179 103 208 364 356 678 384 104 9 272 -1 288 -17 5 -5 -10 -31
-32 -58 -115 -143 -118 -241 -11 -335 110 -98 267 -90 427 20 26 18 48 30 51
28 2 -2 -1 -20 -6 -39 -20 -70 -12 -137 25 -215 98 -204 267 -291 551 -282 98
3 116 6 134 23 l20 21 -75 76 c-41 42 -79 88 -85 103 -38 99 38 192 178 216
83 15 183 0 435 -62 412 -102 573 -126 806 -116 164 7 289 30 454 83 270 88
511 225 645 368 70 76 108 143 122 218 6 28 12 53 13 55 2 1 27 7 55 13 162
30 330 203 467 478 174 351 235 686 191 1042 -18 139 -39 243 -105 507 -62
252 -77 352 -62 435 24 140 117 216 216 178 15 -6 61 -44 103 -85 l76 -75 21
20 c17 18 20 36 23 134 9 284 -78 453 -282 551 -78 37 -145 45 -215 25 -19 -5
-37 -8 -39 -6 -2 3 10 25 28 51 110 160 118 317 20 427 -94 107 -192 104 -335
-11 -27 -22 -53 -37 -58 -32 -5 5 -12 52 -17 105 -35 362 135 742 381 859 86
41 126 49 229 49 91 -1 207 -35 295 -87 78 -46 155 -127 155 -164 0 -44 -16
-51 -120 -51 -113 0 -152 -10 -217 -53 -85 -57 -117 -145 -88 -243 13 -45 28
-69 73 -113 88 -87 163 -102 267 -52 131 62 242 221 279 404 44 211 -9 379
-168 539 -85 85 -165 143 -241 175 -25 10 -45 21 -45 24 0 4 19 14 43 23 74
28 145 79 237 170 98 97 150 182 175 287 60 258 -89 590 -303 672 -89 35 -163
16 -244 -63 -95 -93 -111 -199 -45 -297 21 -30 52 -57 87 -77 51 -29 64 -31
170 -34 63 -2 121 -9 128 -14 6 -6 12 -24 12 -40 0 -44 -95 -135 -190 -181
-111 -54 -186 -70 -305 -65 -91 4 -108 8 -179 42 -252 122 -421 497 -386 862
5 53 12 100 17 105 5 5 31 -10 58 -32 143 -115 241 -118 335 -11 98 110 90
267 -20 427 -18 26 -30 48 -28 50 2 2 21 0 43 -5 79 -19 133 -12 211 25 204
98 291 267 282 551 -3 98 -6 116 -23 134 l-21 20 -76 -75 c-42 -41 -88 -79
-103 -85 -99 -38 -192 38 -216 178 -15 83 0 183 62 435 114 460 139 675 108
932 -43 349 -237 778 -438 968 -79 74 -146 113 -223 127 -28 6 -53 12 -55 13
-1 2 -7 27 -13 55 -14 77 -53 144 -127 223 -127 134 -362 269 -618 355 -181
60 -304 83 -476 91 -234 10 -387 -12 -791 -112 -267 -66 -366 -81 -450 -66
-146 26 -221 124 -172 226 8 18 47 63 85 101 l70 67 -21 21 c-18 18 -35 21
-134 24 -284 9 -453 -78 -551 -282 -37 -78 -44 -132 -25 -211 5 -22 7 -41 6
-43 -2 -2 -32 15 -66 37 -159 103 -303 107 -412 11 -107 -94 -104 -192 11
-335 22 -27 36 -54 32 -58 -15 -15 -193 -25 -294 -16 -308 26 -573 178 -673
385 -34 71 -38 88 -42 179 -5 119 11 194 65 305 46 95 137 190 181 190 16 0
34 -6 40 -12 5 -7 12 -65 14 -128 3 -106 5 -119 34 -170 35 -63 102 -115 163
-125 71 -12 145 18 211 83 63 64 87 123 77 192 -20 152 -211 309 -429 354
-212 44 -379 -8 -539 -168 -86 -85 -144 -165 -176 -241 -10 -25 -20 -45 -23
-45 -3 0 -13 20 -23 45 -31 74 -90 155 -175 241 -159 160 -334 213 -547 167z
m-2955 -957 c227 -53 443 -149 660 -294 286 -191 514 -438 586 -635 25 -70 44
-188 44 -273 0 -49 2 -54 22 -54 46 0 212 112 278 186 18 21 41 57 51 79 23
52 42 207 37 308 -1 42 -1 77 1 77 1 0 37 -27 78 -61 233 -187 490 -313 743
-365 377 -78 778 33 735 204 -10 43 -92 113 -189 163 l-88 46 114 7 c223 13
405 57 556 136 l72 37 73 -37 c150 -79 332 -123 555 -136 l114 -7 -88 -46
c-49 -25 -110 -66 -136 -91 -73 -70 -76 -127 -11 -186 114 -105 425 -145 693
-90 253 52 510 178 743 365 41 34 77 61 78 61 2 0 2 -35 1 -77 -5 -101 14
-256 37 -308 33 -75 129 -165 252 -234 92 -52 95 -50 103 78 12 205 70 332
238 523 263 298 678 542 1070 630 144 32 385 32 501 0 214 -59 347 -169 347
-287 0 -102 -103 -246 -246 -340 -77 -52 -128 -54 -159 -8 -12 17 -27 60 -34
95 -15 78 -29 115 -46 122 -18 7 -80 -11 -135 -39 -126 -64 -168 -174 -121
-324 10 -34 17 -61 14 -61 -2 0 -19 11 -36 24 -18 13 -45 26 -61 30 -66 16
-222 -41 -285 -104 -23 -23 -31 -41 -31 -66 0 -45 31 -76 114 -115 90 -42 191
-60 331 -60 147 0 348 33 364 60 6 10 192 83 197 78 6 -5 -67 -192 -77 -198
-27 -16 -60 -216 -60 -364 0 -142 18 -240 62 -337 37 -79 67 -108 113 -108 61
0 130 94 162 221 18 70 12 110 -22 156 -13 17 -24 34 -24 36 0 3 27 -4 61 -14
119 -37 207 -20 275 53 50 53 100 169 88 203 -7 17 -44 31 -122 46 -35 7 -78
22 -95 34 -27 18 -32 27 -31 61 1 51 53 134 139 219 123 121 245 156 335 96
82 -55 151 -170 193 -320 31 -114 31 -357 -1 -499 -128 -573 -603 -1186 -997
-1287 -33 -8 -106 -18 -162 -22 -96 -6 -103 -7 -103 -27 0 -36 88 -174 154
-241 35 -36 84 -74 108 -85 55 -24 207 -43 311 -38 42 1 77 1 77 -1 0 -1 -27
-37 -61 -78 -187 -233 -313 -490 -365 -743 -78 -377 33 -778 204 -735 43 10
113 92 163 189 l46 88 7 -114 c13 -223 58 -407 135 -555 l38 -73 -38 -73 c-77
-148 -122 -332 -135 -555 l-7 -114 -46 88 c-25 49 -66 110 -91 136 -70 73
-127 76 -186 11 -105 -114 -145 -425 -90 -693 52 -254 178 -511 364 -741 34
-43 62 -79 62 -80 0 -2 -35 -2 -77 -1 -117 5 -259 -14 -320 -44 -32 -15 -74
-49 -109 -87 -63 -69 -144 -200 -144 -233 0 -20 7 -21 104 -28 165 -10 263
-43 387 -127 293 -199 578 -589 713 -978 63 -180 81 -285 80 -466 0 -178 -15
-254 -73 -377 -117 -246 -279 -274 -476 -82 -85 84 -138 166 -139 218 -1 34 4
43 31 62 18 12 62 27 98 33 74 13 112 28 119 47 7 17 -11 79 -39 134 -64 126
-174 168 -324 121 -34 -10 -61 -17 -61 -14 0 2 11 19 24 36 34 46 40 86 22
156 -32 127 -101 221 -162 221 -46 0 -76 -29 -113 -108 -44 -97 -62 -195 -62
-337 0 -148 33 -348 60 -364 10 -6 83 -193 77 -198 -5 -5 -191 68 -197 78 -16
27 -216 60 -364 60 -141 0 -241 -18 -331 -60 -83 -39 -114 -70 -114 -115 0
-25 8 -43 31 -66 63 -62 223 -121 287 -105 15 4 41 17 59 31 17 13 34 24 36
24 3 0 -4 -27 -14 -61 -37 -119 -20 -207 53 -275 53 -50 169 -100 203 -88 17
7 31 44 46 122 7 35 22 78 34 95 18 27 27 32 61 31 51 -1 136 -55 221 -143
120 -122 154 -242 94 -331 -55 -82 -170 -151 -320 -193 -114 -31 -357 -31
-499 1 -373 83 -770 311 -1035 592 -191 203 -260 345 -273 561 -8 131 -10 132
-126 64 -101 -59 -191 -143 -222 -208 -30 -61 -49 -203 -44 -320 1 -42 1 -77
-1 -77 -1 0 -37 28 -80 62 -239 193 -523 328 -780 372 -368 62 -737 -50 -696
-212 10 -43 92 -113 189 -163 l88 -46 -114 -7 c-223 -13 -407 -58 -555 -135
l-73 -38 -73 38 c-148 77 -332 122 -555 135 l-114 7 88 46 c97 50 179 120 189
163 23 92 -81 172 -278 212 -99 21 -296 21 -418 0 -257 -44 -541 -179 -780
-372 -43 -34 -79 -62 -80 -62 -2 0 -4 60 -5 133 -1 209 -27 283 -131 377 -67
60 -198 140 -229 140 -20 0 -21 -7 -27 -103 -8 -125 -27 -200 -72 -292 -47
-95 -121 -191 -235 -306 -272 -274 -641 -480 -1002 -561 -85 -19 -131 -23
-263 -22 -178 0 -254 15 -377 73 -193 91 -252 210 -176 354 64 119 232 260
312 261 34 1 43 -4 62 -31 12 -18 27 -62 33 -98 13 -74 28 -112 47 -119 33
-12 150 38 202 88 73 68 90 156 53 275 -10 34 -17 61 -14 61 2 0 19 -11 36
-24 18 -14 44 -27 59 -31 64 -16 224 43 287 105 23 23 31 41 31 66 0 45 -31
76 -114 115 -90 42 -190 60 -331 60 -148 0 -348 -33 -364 -60 -6 -9 -193 -83
-198 -78 -5 5 69 192 78 198 26 16 60 215 60 359 0 186 -46 355 -115 425 -37
36 -85 34 -126 -6 -62 -63 -121 -223 -105 -287 4 -15 17 -41 31 -59 13 -17 24
-34 24 -36 0 -3 -27 4 -61 14 -171 53 -291 -8 -348 -178 -11 -34 -18 -68 -15
-76 7 -20 43 -35 119 -48 36 -6 80 -21 98 -33 46 -32 44 -82 -8 -160 -94 -141
-237 -246 -336 -246 -122 0 -231 129 -291 347 -32 116 -32 357 0 501 81 363
280 719 557 998 217 218 367 296 596 310 102 7 109 8 109 28 0 31 -80 162
-140 229 -94 104 -168 130 -377 131 -73 1 -133 3 -133 5 0 1 28 37 62 80 191
237 330 527 372 780 62 369 -50 737 -211 696 -44 -10 -114 -92 -164 -189 l-46
-88 -7 114 c-13 223 -58 407 -135 555 l-39 73 33 63 c87 164 144 410 145 631
l1 51 47 -90 c51 -98 121 -180 164 -190 92 -23 172 81 212 278 21 99 21 296 0
418 -44 257 -180 542 -372 780 -34 43 -62 79 -62 80 0 2 36 3 80 1 84 -4 219
10 282 28 77 22 183 130 257 261 52 92 50 95 -79 103 -174 10 -292 56 -438
168 -333 257 -618 713 -714 1140 -32 144 -32 385 0 501 59 214 169 347 287
347 103 0 254 -110 343 -249 48 -76 50 -126 5 -156 -17 -12 -60 -27 -95 -34
-78 -15 -115 -29 -122 -46 -7 -18 11 -81 39 -135 66 -128 174 -168 324 -121
34 10 61 17 61 14 0 -2 -11 -19 -25 -37 -34 -45 -40 -83 -21 -154 20 -79 57
-151 96 -191 130 -130 264 153 239 503 -9 114 -37 252 -55 271 -13 12 -86 196
-81 202 5 5 192 -69 198 -78 16 -27 216 -60 364 -60 140 0 241 18 331 60 83
39 114 70 114 115 0 25 -8 43 -31 66 -63 63 -219 120 -285 104 -16 -4 -43 -17
-61 -30 -17 -13 -34 -24 -36 -24 -3 0 4 27 14 61 47 150 5 260 -121 324 -55
28 -117 46 -134 39 -19 -7 -34 -45 -47 -119 -6 -36 -21 -80 -33 -98 -31 -45
-81 -44 -157 5 -138 88 -249 241 -249 341 0 131 149 244 390 298 119 27 332
20 480 -15z"/>
</g>
</svg>
